<?xml version="1.0" standalone="no"?>
<!DOCTYPE svg PUBLIC "-//W3C//DTD SVG 20010904//EN"
 "http://www.w3.org/TR/2001/REC-SVG-20010904/DTD/svg10.dtd">
<svg version="1.0" xmlns="http://www.w3.org/2000/svg"
 width="1080.000000pt" height="1080.000000pt" viewBox="0 0 1080.000000 1080.000000"
 preserveAspectRatio="xMidYMid meet">

<g transform="translate(0.000000,1080.000000) scale(0.100000,-0.100000)"
fill="#000000" stroke="none">
<path d="M5010 10344 c-984 -83 -1918 -449 -2680 -1052 -323 -256 -651 -593
-906 -932 -550 -731 -891 -1637 -965 -2562 -16 -203 -7 -790 15 -963 49 -385
112 -663 226 -1005 176 -529 433 -1011 775 -1455 265 -345 632 -705 974 -958
741 -547 1625 -879 2546 -957 154 -13 666 -13 815 0 1500 129 2856 925 3698
2170 243 360 464 809 598 1218 109 330 185 688 226 1067 21 191 17 842 -5
1025 -88 712 -287 1326 -621 1914 -382 672 -946 1271 -1601 1699 -554 362
-1203 619 -1835 727 -326 56 -416 63 -825 65 -214 1 -410 1 -435 -1z m957
-333 c301 -39 472 -75 753 -158 593 -173 1165 -479 1647 -878 145 -121 433
-404 553 -545 561 -657 913 -1404 1060 -2250 41 -236 52 -372 57 -690 7 -428
-11 -645 -87 -1020 -254 -1265 -1038 -2373 -2158 -3052 -159 -97 -464 -249
-643 -322 -325 -132 -686 -231 -1042 -287 -395 -61 -916 -66 -1317 -13 -902
119 -1751 502 -2435 1099 -898 784 -1449 1846 -1577 3040 -17 160 -17 770 0
930 34 321 114 698 208 981 527 1591 1857 2774 3489 3103 373 75 541 90 985
86 283 -2 374 -6 507 -24z"/>
<path d="M5030 9890 c-504 -53 -889 -144 -1305 -310 -1012 -403 -1862 -1184
-2349 -2157 -261 -522 -404 -1028 -462 -1628 -22 -235 -15 -711 15 -940 94
-723 327 -1352 718 -1943 218 -328 517 -668 818 -928 579 -502 1322 -860 2090
-1008 659 -127 1405 -96 2047 85 278 78 575 192 821 315 878 441 1610 1186
2032 2069 301 628 445 1263 445 1955 0 1070 -360 2062 -1051 2895 -107 129
-425 447 -554 554 -299 248 -608 448 -935 604 -479 229 -904 353 -1450 423
-146 18 -745 28 -880 14z m535 -424 c246 -121 297 -448 99 -636 -227 -215
-600 -89 -654 221 -32 184 74 364 252 430 41 15 74 19 148 17 82 -3 103 -7
155 -32z m-719 -732 c9 -35 -9 -50 -84 -75 -308 -100 -646 -346 -844 -611 -51
-69 -79 -83 -106 -56 -21 21 -13 45 44 119 205 269 533 508 858 624 98 35 123
35 132 -1z m1431 -84 c269 -132 472 -296 663 -536 61 -76 70 -100 48 -122 -28
-28 -54 -13 -115 66 -209 269 -480 469 -798 587 -55 20 -106 43 -114 50 -18
17 -7 62 17 68 27 6 146 -39 299 -113z m-1045 -40 c126 -84 250 -82 370 6 49
36 50 37 121 31 188 -16 344 -124 423 -292 41 -86 54 -167 54 -349 0 -116 -3
-143 -17 -158 -15 -17 -52 -18 -773 -18 -575 0 -759 3 -768 12 -8 8 -12 67
-12 199 0 158 3 197 20 251 64 207 258 350 484 357 29 1 52 -8 98 -39z m-1394
-715 c104 -14 222 -106 275 -214 29 -61 32 -74 32 -166 0 -92 -3 -105 -32
-167 -40 -86 -106 -151 -191 -191 -60 -28 -77 -31 -162 -32 -83 0 -102 4 -153
27 -115 54 -178 123 -217 239 -62 182 23 385 196 470 60 30 146 49 189 43 11
-1 39 -5 63 -9z m3332 -31 c118 -56 197 -160 222 -292 31 -165 -61 -336 -222
-415 -60 -30 -72 -32 -165 -32 -92 0 -105 2 -166 32 -79 39 -150 111 -187 191
-24 51 -27 69 -27 167 0 101 2 114 28 163 53 100 139 175 240 208 25 8 76 13
127 11 71 -2 96 -7 150 -33z m-3584 -848 c118 -90 278 -87 392 9 34 28 72 32
168 14 151 -27 291 -133 359 -272 47 -96 55 -148 55 -348 0 -156 -1 -169 -19
-179 -13 -7 -272 -10 -770 -10 -668 0 -751 2 -765 16 -22 21 -22 308 -1 408
47 221 255 390 488 395 40 1 55 -5 93 -33z m3252 -6 c20 -16 54 -36 75 -45 46
-19 152 -21 204 -4 41 13 107 52 118 69 3 5 39 10 80 10 211 0 399 -141 467
-350 16 -52 22 -99 25 -241 4 -123 2 -182 -6 -197 l-12 -22 -762 0 c-580 0
-766 3 -775 12 -19 19 -16 348 3 423 57 217 253 374 468 375 72 0 81 -2 115
-30z m-1274 -778 c83 -39 149 -105 189 -190 29 -61 32 -75 32 -167 0 -88 -3
-107 -27 -157 -132 -282 -521 -310 -686 -50 -142 223 -21 527 235 592 71 18
186 5 257 -28z m-1618 -214 c155 -198 405 -395 642 -505 93 -43 113 -62 95
-92 -19 -30 -57 -23 -168 32 -239 118 -440 276 -611 480 -74 87 -85 112 -62
135 26 26 55 13 104 -50z m3012 50 c23 -23 12 -45 -67 -139 -171 -205 -388
-372 -640 -492 -107 -51 -121 -53 -145 -15 -16 26 7 44 118 97 235 111 493
316 635 504 44 58 73 71 99 45z m-1724 -692 c59 -45 106 -60 186 -59 71 0 134
22 193 67 28 21 45 26 93 26 131 0 244 -49 345 -151 71 -71 109 -138 134 -234
20 -77 22 -397 2 -413 -8 -7 -266 -13 -759 -18 -689 -6 -749 -6 -772 10 l-26
16 0 164 c0 193 9 246 55 345 45 93 133 183 226 228 81 40 124 51 211 52 62 1
71 -2 112 -33z m-3031 -1266 c34 -13 56 -27 54 -33 -3 -7 -13 -32 -23 -57 -9
-25 -18 -47 -20 -49 -1 -1 -30 6 -63 18 -111 38 -188 22 -235 -50 -34 -51 -50
-128 -43 -210 9 -111 58 -181 136 -195 33 -7 146 6 199 22 21 6 22 4 22 -59
l0 -65 -69 -16 c-250 -57 -409 43 -442 278 -23 169 35 327 144 395 87 54 229
63 340 21z m601 15 c139 -42 211 -144 223 -317 13 -181 -54 -323 -180 -379
-44 -20 -68 -24 -157 -24 -93 0 -111 3 -160 26 -70 34 -116 80 -149 149 -24
51 -26 66 -26 190 0 124 2 139 26 190 56 118 157 178 304 179 39 1 92 -6 119
-14z m4026 -17 c126 -59 180 -160 180 -340 0 -128 -37 -232 -105 -291 -11 -10
-42 -30 -70 -45 -46 -24 -60 -27 -160 -27 -135 0 -192 21 -259 96 -58 64 -77
121 -83 246 -11 203 61 326 222 380 67 22 209 12 275 -19z m-3500 -273 l0
-295 145 0 145 0 0 -65 0 -65 -220 0 -220 0 0 360 0 360 75 0 75 0 0 -295z
m570 0 l0 -295 145 0 145 0 0 -65 0 -65 -225 0 -225 0 0 353 c0 195 3 357 7
360 3 4 39 7 80 7 l73 0 0 -295z m888 -47 c66 -189 123 -351 127 -360 6 -16
-1 -18 -77 -18 l-85 0 -25 83 -24 82 -131 3 -130 3 -27 -86 -27 -85 -79 0
c-44 0 -80 3 -80 8 0 4 55 166 122 359 l123 353 96 0 96 0 121 -342z m634 310
c69 -32 91 -63 96 -137 5 -74 -15 -124 -63 -152 l-35 -21 42 -22 c59 -30 80
-73 76 -158 -3 -57 -8 -73 -34 -105 -16 -21 -52 -49 -80 -63 -46 -23 -60 -25
-231 -28 l-183 -4 0 362 0 362 178 -4 c165 -4 181 -6 234 -30z m604 21 c77
-14 137 -49 158 -93 35 -74 7 -190 -54 -221 l-32 -17 41 -20 c103 -51 108
-226 8 -303 -60 -45 -113 -55 -299 -55 l-168 0 0 353 c0 195 3 357 7 360 10
11 274 8 339 -4z m1600 -339 c68 -190 123 -351 123 -358 1 -10 -19 -12 -81
-10 l-82 3 -24 83 -25 83 -131 -3 -131 -3 -24 -82 -24 -83 -85 0 c-63 0 -83 3
-79 13 2 6 57 162 121 345 64 183 119 339 123 348 4 12 23 14 101 12 l96 -3
122 -345z m589 326 c85 -37 125 -98 125 -192 0 -70 -30 -128 -88 -168 l-39
-27 104 -155 104 -155 -87 3 -88 3 -82 130 -81 130 -41 3 -42 3 0 -135 0 -136
-80 0 -80 0 0 361 0 361 168 -4 c129 -3 176 -8 207 -22z m667 5 c91 -29 182
-122 210 -214 7 -23 12 -82 11 -132 -1 -115 -26 -184 -88 -247 -83 -85 -163
-108 -371 -108 l-134 0 0 361 0 361 168 -5 c92 -2 184 -10 204 -16z m-4141
-1197 c117 -34 165 -105 157 -231 -9 -135 -77 -194 -246 -215 l-92 -12 0 -123
0 -123 -80 0 -80 0 0 353 c0 195 3 357 7 360 14 15 278 7 334 -9z m769 -49 l0
-65 -95 0 -95 0 0 -295 0 -295 -80 0 -80 0 0 295 0 295 -95 0 -95 0 0 65 0 65
270 0 270 0 0 -65z m380 20 c0 -43 -1 -45 -45 -64 l-45 -20 0 -231 0 -231 45
-20 c44 -19 45 -21 45 -64 l0 -45 -165 0 -165 0 0 43 c0 41 2 44 45 65 l45 22
0 230 0 230 -45 22 c-43 21 -45 24 -45 65 l0 43 165 0 165 0 0 -45z m600 -20
l0 -65 -100 0 -100 0 0 -295 0 -295 -75 0 -75 0 0 295 0 295 -100 0 -100 0 0
65 0 65 275 0 275 0 0 -65z"/>
<path d="M5325 9411 c-87 -23 -167 -89 -207 -170 -32 -66 -32 -187 1 -253 29
-61 89 -120 149 -150 67 -33 198 -33 260 0 230 122 226 443 -7 550 -59 27
-143 37 -196 23z"/>
<path d="M5008 8541 c-114 -37 -198 -109 -251 -216 -34 -68 -47 -146 -47 -287
l0 -118 700 0 700 0 0 133 c0 194 -25 275 -115 375 -62 69 -168 122 -257 129
-60 5 -66 3 -116 -31 -69 -46 -119 -60 -217 -59 -89 1 -142 16 -209 63 -53 36
-101 39 -188 11z"/>
<path d="M3654 7799 c-219 -84 -266 -361 -89 -517 55 -49 119 -72 195 -72 78
0 141 24 199 76 71 64 103 133 103 224 0 215 -212 365 -408 289z"/>
<path d="M6872 7780 c-112 -56 -167 -145 -167 -270 0 -62 5 -86 28 -133 53
-107 153 -170 272 -171 90 -1 165 33 229 105 73 82 94 184 60 299 -12 41 -29
67 -72 110 -67 67 -124 90 -222 90 -54 0 -78 -6 -128 -30z"/>
<path d="M3369 6941 c-64 -21 -128 -62 -180 -118 -87 -92 -109 -166 -109 -360
l0 -143 696 0 696 0 -4 168 c-3 156 -5 171 -29 222 -15 30 -41 73 -58 95 -97
119 -291 191 -369 136 -136 -95 -299 -103 -436 -20 -75 45 -116 49 -207 20z"/>
<path d="M6662 6949 c-76 -15 -150 -56 -211 -116 -100 -101 -130 -196 -131
-414 0 -74 3 -98 14 -102 8 -3 323 -6 701 -7 l687 -1 -4 168 c-3 165 -4 169
-35 236 -61 129 -175 214 -319 239 -69 11 -71 11 -105 -15 -57 -43 -129 -68
-209 -74 -93 -7 -166 12 -240 62 -54 36 -73 39 -148 24z"/>
<path d="M5320 6171 c-52 -16 -108 -51 -143 -90 -57 -63 -70 -97 -75 -191 -4
-81 -2 -88 30 -150 95 -182 324 -223 477 -85 44 40 85 117 94 178 7 45 -9 139
-29 180 -50 96 -166 168 -269 166 -33 0 -71 -4 -85 -8z"/>
<path d="M5015 5306 c-131 -42 -235 -145 -275 -274 -16 -51 -20 -93 -20 -208
l0 -144 698 2 697 3 3 99 c5 182 -25 296 -104 393 -68 83 -189 143 -287 143
-41 0 -61 -6 -97 -30 -61 -41 -130 -60 -216 -60 -83 0 -149 19 -212 61 -48 33
-115 38 -187 15z"/>
<path d="M2615 3996 c-41 -18 -82 -68 -95 -114 -13 -48 -13 -176 1 -225 13
-50 61 -103 106 -118 47 -15 128 -6 161 18 15 11 38 40 52 64 22 39 25 56 25
144 0 87 -3 107 -25 149 -14 28 -37 59 -52 70 -35 25 -131 32 -173 12z"/>
<path d="M6594 3996 c-66 -29 -104 -112 -104 -226 0 -154 65 -240 181 -240
113 0 179 85 179 231 0 126 -36 206 -107 235 -41 18 -109 17 -149 0z"/>
<path d="M4557 3960 c-9 -30 -29 -98 -45 -150 l-30 -95 85 -3 c47 -2 88 -1 90
2 3 3 -13 67 -37 143 -23 76 -43 143 -44 148 -2 6 -10 -15 -19 -45z"/>
<path d="M5160 3925 l0 -75 80 0 c97 0 120 16 120 81 0 36 -3 41 -35 55 -19 7
-64 14 -100 14 l-65 0 0 -75z"/>
<path d="M5160 3631 l0 -91 75 0 c79 0 127 16 139 45 14 38 6 82 -20 106 -22
21 -37 24 -110 28 l-84 3 0 -91z"/>
<path d="M5840 3926 l0 -76 80 0 c93 0 120 16 120 73 0 54 -28 71 -121 76
l-79 3 0 -76z"/>
<path d="M5840 3630 l0 -92 86 3 c79 4 87 6 110 32 13 16 24 41 24 57 0 16
-11 41 -24 57 -23 26 -31 28 -110 32 l-86 3 0 -92z"/>
<path d="M7362 3863 c-23 -80 -41 -148 -39 -150 3 -2 43 -3 89 -1 l85 3 -43
144 c-25 80 -45 146 -47 147 -1 1 -21 -63 -45 -143z"/>
<path d="M8000 3904 l0 -96 60 4 c71 5 110 30 122 75 18 70 -33 113 -132 113
l-50 0 0 -96z"/>
<path d="M8660 3770 l0 -230 63 0 c155 2 221 72 219 235 0 47 -6 94 -15 115
-31 73 -99 110 -202 110 l-65 0 0 -230z"/>
<path d="M4560 2694 l0 -107 60 6 c34 3 71 12 84 21 35 22 51 77 36 122 -15
44 -56 64 -130 64 l-50 0 0 -106z"/>
</g>
</svg>
